<svg width="22" height="22" viewBox="0 0 22 22" fill="none" xmlns="http://www.w3.org/2000/svg">
<path d="M4.58566 2.39806C5.38247 2.04854 6.81673 2.2233 7.29482 3.27184C7.61355 4.14563 7.93227 5.36893 7.93227 5.19418C7.93227 4.49515 7.93227 3.09709 8.09163 2.39806C8.251 1.87379 8.56972 1.34952 9.20717 1.17476C9.68526 1 10.1633 1 10.6414 1C11.1195 1.17476 11.5976 1.52427 11.9163 1.87379C12.5538 2.92233 12.5538 5.19418 12.5538 5.01942C12.7131 4.49515 12.7131 2.92233 13.0319 2.2233C13.1912 1.87379 13.8287 1.52427 14.1474 1.34951C14.6255 1.17476 15.2629 1.17476 15.741 1.34951C16.0598 1.34951 16.6972 1.87379 16.8566 2.2233C17.1753 2.74757 17.3347 4.49515 17.494 5.19418C17.494 5.36893 17.6534 4.49515 17.9721 3.97087C18.6096 2.92233 20.8406 2.57282 21 5.01942C21 6.24272 21 6.06796 21 6.94175C21 7.81553 21 8.3398 21 9.03883C21 9.73786 20.8406 11.3107 20.6813 12.0097C20.5219 12.534 20.0438 13.7573 19.5657 14.4563C19.5657 14.4563 17.8127 16.5534 17.6534 17.6019C17.494 18.6505 17.494 18.6505 17.494 19.3495C17.494 20.0485 17.6534 20.9223 17.6534 20.9223C17.6534 20.9223 16.3785 21.0971 15.741 20.9223C15.1036 20.7476 14.3068 19.5243 14.1474 19C13.8287 18.4757 13.3506 18.4757 13.0319 19C12.7131 19.699 11.9163 20.9223 11.4382 20.9223C10.3227 21.0971 8.09163 20.9223 6.49801 20.9223C6.49801 20.9223 6.81673 19.1748 6.17928 18.4757C5.7012 17.9515 4.90438 17.0777 4.4263 16.5534L3.15139 14.9806C2.67331 14.2816 1.55777 13.4078 1.23904 11.4854C0.920319 9.91262 0.920319 9.03883 1.23904 8.33981C1.55777 7.64078 2.35458 7.29126 2.67331 7.29126C2.99203 7.29126 3.78884 7.29126 4.10757 7.46602C4.4263 7.64078 4.58566 7.81553 4.90438 8.16505C5.22311 8.68932 5.38247 9.03883 5.22311 8.33981C5.06375 7.81553 4.74502 7.29126 4.58566 6.59223C4.4263 5.8932 3.94821 5.01942 3.94821 3.97087C3.15139 3.97087 3.31076 2.92233 4.58566 2.39806Z" fill="white"/>
<path d="M4.58566 2.39806C5.38247 2.04854 6.81673 2.2233 7.29482 3.27184C7.61355 4.14563 7.93227 5.36893 7.93227 5.19418C7.93227 4.49515 7.93227 3.09709 8.09163 2.39806C8.251 1.87379 8.56972 1.34952 9.20717 1.17476C9.68526 1 10.1633 1 10.6414 1C11.1195 1.17476 11.5976 1.52427 11.9163 1.87379C12.5538 2.92233 12.5538 5.19418 12.5538 5.01942C12.7131 4.49515 12.7131 2.92233 13.0319 2.2233C13.1912 1.87379 13.8287 1.52427 14.1474 1.34951C14.6255 1.17476 15.2629 1.17476 15.741 1.34951C16.0598 1.34951 16.6972 1.87379 16.8566 2.2233C17.1753 2.74757 17.3347 4.49515 17.494 5.19418C17.494 5.36893 17.6534 4.49515 17.9721 3.97087C18.6096 2.92233 20.8406 2.57282 21 5.01942C21 6.24272 21 6.06796 21 6.94175C21 7.81553 21 8.3398 21 9.03883C21 9.73786 20.8406 11.3107 20.6813 12.0097C20.5219 12.534 20.0438 13.7573 19.5657 14.4563C19.5657 14.4563 17.8127 16.5534 17.6534 17.6019C17.494 18.6505 17.494 18.6505 17.494 19.3495C17.494 20.0485 17.6534 20.9223 17.6534 20.9223C17.6534 20.9223 16.3785 21.0971 15.741 20.9223C15.1036 20.7476 14.3068 19.5243 14.1474 19C13.8287 18.4757 13.3506 18.4757 13.0319 19C12.7131 19.699 11.9163 20.9223 11.4382 20.9223C10.3227 21.0971 8.09163 20.9223 6.49801 20.9223C6.49801 20.9223 6.81673 19.1748 6.17928 18.4757C5.7012 17.9515 4.90438 17.0777 4.4263 16.5534L3.15139 14.9806C2.67331 14.2816 1.55777 13.4078 1.23904 11.4854C0.920319 9.91262 0.920319 9.03883 1.23904 8.33981C1.55777 7.64078 2.35458 7.29126 2.67331 7.29126C2.99203 7.29126 3.78884 7.29126 4.10757 7.46602C4.4263 7.64078 4.58566 7.81553 4.90438 8.16505C5.22311 8.68932 5.38247 9.03883 5.22311 8.33981C5.06375 7.81553 4.74502 7.29126 4.58566 6.59223C4.4263 5.8932 3.94821 5.01942 3.94821 3.97087C3.15139 3.97087 3.31076 2.92233 4.58566 2.39806Z" stroke="black" stroke-width="0.75" stroke-linejoin="round"/>
<path d="M15.7412 15.8543V9.9126" stroke="black" stroke-width="0.75" stroke-linecap="round"/>
<path d="M12.5539 15.8543L12.3945 9.9126" stroke="black" stroke-width="0.75" stroke-linecap="round"/>
<path d="M9.36621 9.9126V15.8543" stroke="black" stroke-width="0.75" stroke-linecap="round"/>
</svg>
