<svg width="22" height="22" viewBox="0 0 22 22" fill="none" xmlns="http://www.w3.org/2000/svg">
<path d="M6.12455 11.6039C5.99107 11.0704 5.85759 10.5369 5.59064 9.4698C5.32368 8.66951 5.1902 8.26936 4.92324 7.86921C4.65629 7.2023 4.52281 6.93553 4.25585 6.26862C4.12237 5.86847 3.72194 4.93479 3.58846 4.40126C3.45498 3.73435 3.58846 3.20081 3.85541 2.80067C4.25585 2.40052 5.1902 2.13375 5.72412 2.26714C6.25803 2.40052 6.65846 2.93405 6.92542 3.3342C7.32586 4.00111 7.45934 4.13449 7.85977 5.33494C8.39369 6.66877 8.66064 7.86921 8.66064 8.26936L8.79412 8.93627C8.79412 8.93627 8.79412 7.46906 8.79412 7.33568C8.79412 6.00185 8.66064 4.93479 8.79412 3.46758C8.79412 3.3342 8.9276 2.66728 8.9276 2.5339C9.06108 1.86699 9.32804 1.46684 9.86195 1.20007C10.3959 0.933309 11.0633 0.933309 11.7307 1.20007C12.2646 1.46684 12.5315 1.86699 12.665 2.5339C12.665 2.66728 12.7985 3.86773 12.7985 4.00111C12.7985 5.33494 12.7985 6.13524 12.7985 6.93553C12.7985 7.2023 12.7985 9.06966 12.7985 8.93627C12.932 8.00259 12.932 4.66802 13.1989 3.73435C13.3324 3.20081 13.7328 2.80067 14.2667 2.5339C14.8007 2.26714 15.735 2.40052 16.1354 2.80067C16.5359 3.20081 16.6694 3.73435 16.8028 4.40126C16.8028 4.93479 16.8028 5.6017 16.8028 6.00185C16.8028 7.2023 16.8028 7.73583 16.8028 8.80289C16.8028 8.80289 16.8028 9.20304 16.8028 9.06965C16.9363 8.66951 17.0698 8.40274 17.2033 8.13598C17.2033 8.00259 17.4702 7.33568 17.7372 6.93553C17.8707 6.66877 18.0041 6.402 18.2711 6.00185C18.5381 5.6017 18.805 5.46832 19.2055 5.20156C19.8728 4.93479 20.6737 5.33494 20.9407 6.00185C21.0742 6.26862 20.9407 6.93553 20.9407 7.46906C20.8072 8.26936 20.5402 9.20304 20.4068 9.60319C20.2733 10.1367 20.0063 11.2038 20.0063 11.7373C19.8728 12.2708 19.7394 13.6047 19.4724 14.1382C19.3389 14.5383 18.9385 15.472 18.5381 16.0056C18.5381 16.0056 17.0698 17.6061 16.9363 18.4064C16.8028 19.2067 16.8028 19.2067 16.8028 19.7403C16.8028 20.2738 16.9363 20.9407 16.9363 20.9407C16.9363 20.9407 15.8685 21.0741 15.3346 20.9407C14.8007 20.8073 14.1333 19.8737 13.9998 19.4735C13.7328 19.0734 13.3324 19.0734 13.0654 19.4735C12.7985 20.007 12.1311 20.9407 11.5972 20.9407C10.6628 21.0741 8.79412 20.9407 7.45934 20.9407C7.45934 20.9407 7.72629 19.6069 7.19238 19.0734C6.79194 18.6732 6.12455 18.0063 5.72412 17.6061L4.65629 16.4057C4.25585 15.8722 3.85541 14.9385 3.05454 13.7381C2.65411 13.0711 1.71976 12.2708 1.31932 11.6039C1.05236 11.0704 0.918886 10.2701 1.05236 9.86995C1.31932 9.06966 1.98671 8.66951 2.92106 8.80289C3.58846 8.80289 3.98889 9.06965 4.52281 9.4698C4.78976 9.73657 5.32368 10.1367 5.59064 10.4035C5.85759 10.6702 5.85759 10.8036 6.12455 11.0704C6.12455 11.8707 6.12455 12.0041 6.12455 11.6039Z" fill="white"/>
<path d="M6.12455 11.6039C5.99107 11.0704 5.85759 10.5369 5.59064 9.4698C5.32368 8.66951 5.1902 8.26936 4.92324 7.86921C4.65629 7.2023 4.52281 6.93553 4.25585 6.26862C4.12237 5.86847 3.72194 4.93479 3.58846 4.40126C3.45498 3.73435 3.58846 3.20081 3.85541 2.80067C4.25585 2.40052 5.1902 2.13375 5.72412 2.26714C6.25803 2.40052 6.65846 2.93405 6.92542 3.3342C7.32586 4.00111 7.45934 4.13449 7.85977 5.33494C8.39369 6.66877 8.66064 7.86921 8.66064 8.26936L8.79412 8.93627C8.79412 8.93627 8.79412 7.46906 8.79412 7.33568C8.79412 6.00185 8.66064 4.93479 8.79412 3.46758C8.79412 3.3342 8.9276 2.66728 8.9276 2.5339C9.06108 1.86699 9.32804 1.46684 9.86195 1.20007C10.3959 0.933309 11.0633 0.933309 11.7307 1.20007C12.2646 1.46684 12.5315 1.86699 12.665 2.5339C12.665 2.66728 12.7985 3.86773 12.7985 4.00111C12.7985 5.33494 12.7985 6.13524 12.7985 6.93553C12.7985 7.2023 12.7985 9.06966 12.7985 8.93627C12.932 8.00259 12.932 4.66802 13.1989 3.73435C13.3324 3.20081 13.7328 2.80067 14.2667 2.5339C14.8007 2.26714 15.735 2.40052 16.1354 2.80067C16.5359 3.20081 16.6694 3.73435 16.8028 4.40126C16.8028 4.93479 16.8028 5.6017 16.8028 6.00185C16.8028 7.2023 16.8028 7.73583 16.8028 8.80289C16.8028 8.80289 16.8028 9.20304 16.8028 9.06965C16.9363 8.66951 17.0698 8.40274 17.2033 8.13598C17.2033 8.00259 17.4702 7.33568 17.7372 6.93553C17.8707 6.66877 18.0041 6.402 18.2711 6.00185C18.5381 5.6017 18.805 5.46832 19.2055 5.20156C19.8728 4.93479 20.6737 5.33494 20.9407 6.00185C21.0742 6.26862 20.9407 6.93553 20.9407 7.46906C20.8072 8.26936 20.5402 9.20304 20.4068 9.60319C20.2733 10.1367 20.0063 11.2038 20.0063 11.7373C19.8728 12.2708 19.7394 13.6047 19.4724 14.1382C19.3389 14.5383 18.9385 15.472 18.5381 16.0056C18.5381 16.0056 17.0698 17.6061 16.9363 18.4064C16.8028 19.2067 16.8028 19.2067 16.8028 19.7403C16.8028 20.2738 16.9363 20.9407 16.9363 20.9407C16.9363 20.9407 15.8685 21.0741 15.3346 20.9407C14.8007 20.8073 14.1333 19.8737 13.9998 19.4735C13.7328 19.0734 13.3324 19.0734 13.0654 19.4735C12.7985 20.007 12.1311 20.9407 11.5972 20.9407C10.6628 21.0741 8.79412 20.9407 7.45934 20.9407C7.45934 20.9407 7.72629 19.6069 7.19238 19.0734C6.79194 18.6732 6.12455 18.0063 5.72412 17.6061L4.65629 16.4057C4.25585 15.8722 3.85541 14.9385 3.05454 13.7381C2.65411 13.0711 1.71976 12.2708 1.31932 11.6039C1.05236 11.0704 0.918886 10.2701 1.05236 9.86995C1.31932 9.06966 1.98671 8.66951 2.92106 8.80289C3.58846 8.80289 3.98889 9.06965 4.52281 9.4698C4.78976 9.73657 5.32368 10.1367 5.59064 10.4035C5.85759 10.6702 5.85759 10.8036 6.12455 11.0704C6.12455 11.8707 6.12455 12.0041 6.12455 11.6039Z" stroke="black" stroke-width="0.75" stroke-linecap="round" stroke-linejoin="round"/>
<path d="M15.4678 17.0721V12.5371" stroke="black" stroke-width="0.75" stroke-linecap="round"/>
<path d="M12.7985 17.0721L12.665 12.5371" stroke="black" stroke-width="0.75" stroke-linecap="round"/>
<path d="M10.1289 12.5371V17.0721" stroke="black" stroke-width="0.75" stroke-linecap="round"/>
</svg>
