<svg width="25" height="15" viewBox="0 0 25 15" fill="none" xmlns="http://www.w3.org/2000/svg">
<path d="M11.5997 11.2336L10.1831 9.81694C9.93898 9.57286 9.93898 9.17714 10.1831 8.93306C10.4271 8.68898 10.8229 8.68898 11.0669 8.93306L13.5669 11.4331C13.811 11.6771 13.811 12.0729 13.5669 12.3169L11.0669 14.8169C10.8229 15.061 10.4271 15.061 10.1831 14.8169C9.93898 14.5729 9.93898 14.1771 10.1831 13.9331L11.6305 12.4856C5.16854 12.2709 0 9.67674 0 6.25C0 2.67086 5.63849 0 12.5 0C19.3615 0 25 2.67086 25 6.25C25 8.12772 23.4514 9.78299 20.8657 10.9292C20.5501 11.0691 20.1809 10.9267 20.041 10.6111C19.9011 10.2956 20.0436 9.92635 20.3591 9.78647C22.5421 8.81876 23.75 7.52766 23.75 6.25C23.75 3.61593 18.7553 1.25 12.5 1.25C6.24475 1.25 1.25 3.61593 1.25 6.25C1.25 8.75639 5.77226 11.02 11.5997 11.2336Z" fill="black"/>
</svg>
