<svg width="25" height="15" viewBox="0 0 25 15" fill="none" xmlns="http://www.w3.org/2000/svg">
<path d="M13.4003 11.2336L14.8169 9.81694C15.061 9.57286 15.061 9.17713 14.8169 8.93306C14.5729 8.68898 14.1771 8.68898 13.9331 8.93306L11.4331 11.4331C11.189 11.6771 11.189 12.0729 11.4331 12.3169L13.9331 14.8169C14.1771 15.061 14.5729 15.061 14.8169 14.8169C15.061 14.5729 15.061 14.1771 14.8169 13.9331L13.3695 12.4856C19.8315 12.2709 25 9.67674 25 6.25C25 2.67086 19.3615 -4.92932e-07 12.5 -1.09278e-06C5.63849 -1.69264e-06 2.15069e-06 2.67086 1.83779e-06 6.25C1.67364e-06 8.12772 1.54861 9.78298 4.13431 10.9292C4.44987 11.0691 4.81908 10.9267 4.95897 10.6111C5.09886 10.2956 4.95645 9.92635 4.64089 9.78646C2.45791 8.81876 1.25 7.52766 1.25 6.25C1.25 3.61593 6.24475 1.25 12.5 1.25C18.7553 1.25 23.75 3.61593 23.75 6.25C23.75 8.75639 19.2277 11.02 13.4003 11.2336Z" fill="black"/>
</svg>
