<svg width="50" height="26" viewBox="0 0 50 26" fill="none" xmlns="http://www.w3.org/2000/svg">
<path d="M49.7499 0.958657V25.0413C49.7499 25.4328 49.4327 25.75 49.0415 25.75H15.0419C14.6507 25.75 14.3335 25.4328 14.3335 25.0413V0.958657C14.3335 0.567227 14.6507 0.25 15.0419 0.25H49.0415C49.4327 0.25 49.7499 0.567227 49.7499 0.958657Z" fill="#72CBC2" stroke="#030404" stroke-width="0.5"/>
<path d="M50 0.9611L36.551 13L50 25.0413C50 25.5708 49.5709 26 49.0416 26H48.9246L35.4768 13.9611L32.5191 16.6091C32.3831 16.7309 32.2124 16.7917 32.0417 16.7917C31.871 16.7917 31.6991 16.7309 31.5642 16.6091L28.6054 13.9611L15.1577 26H15.0419C14.5126 26 14.0835 25.5708 14.0835 25.0413V25.039L27.5325 13L14.0835 0.9611V0.958755C14.0835 0.429315 14.5126 9.7629e-05 15.0419 9.7629e-05H15.1565L32.0418 15.1143L48.9257 0H49.0416C49.5709 0 50 0.429217 50 0.958657V0.9611Z" fill="#030404"/>
<path d="M10.0246 3.80802H3.04268C2.68008 3.80802 2.38623 3.51417 2.38623 3.15157C2.38623 2.78897 2.68008 2.49512 3.04268 2.49512H10.0246C10.3872 2.49512 10.681 2.78897 10.681 3.15157C10.681 3.51417 10.3872 3.80802 10.0246 3.80802Z" fill="#030404"/>
<path d="M10.6212 16.3442H4.23604C3.87344 16.3442 3.57959 16.0503 3.57959 15.6877C3.57959 15.3251 3.87344 15.0312 4.23604 15.0312H10.6212C10.9838 15.0312 11.2776 15.3251 11.2776 15.6877C11.2776 16.0503 10.9838 16.3442 10.6212 16.3442Z" fill="#030404"/>
<path d="M8.23513 10.9716H0.656451C0.29385 10.9716 0 10.6777 0 10.3151C0 9.95254 0.29385 9.65869 0.656451 9.65869H8.23513C8.59773 9.65869 8.89158 9.95254 8.89158 10.3151C8.89158 10.6777 8.59773 10.9716 8.23513 10.9716Z" fill="#030404"/>
<path d="M8.23625 23.5043H7.50216C7.13955 23.5043 6.8457 23.2105 6.8457 22.8479C6.8457 22.4853 7.13955 22.1914 7.50216 22.1914H8.23634C8.59894 22.1914 8.89279 22.4853 8.89279 22.8479C8.8927 23.2105 8.59885 23.5043 8.23625 23.5043Z" fill="#030404"/>
<path d="M4.51714 23.5043H0.656452C0.293851 23.5043 0 23.2105 0 22.8479C0 22.4853 0.293851 22.1914 0.656452 22.1914H4.51714C4.87974 22.1914 5.17359 22.4853 5.17359 22.8479C5.17359 23.2105 4.87974 23.5043 4.51714 23.5043Z" fill="#030404"/>
</svg>
